P2
64
64
255
255 146 106 83 71 67 66 67 68 70 72 74 76 77 79 80 82 83 84 85 87 88 89 90 91 92 93 93 94 95 96 97 97 98 99 100 100 101 102 103 103 104 105 106 106 107 108 109 110 110 111 112 113 114 115 117 118 120 121 124 126 129 134 136 146 128 96 76 67 64 65 66 68 70 72 74 76 77 79 80 82 83 84 86 87 88 89 90 91 92 93 93 94 95 96 97 97 98 99 100 100 101 102 103 103 104 105 106 106 107 108 109 110 110 111 112 113 114 115 117 118 119 121 123 126 129 132 143 106 96 74 59 54 60 63 66 68 70 72 74 76 78 79 81 82 83 84 86 87 88 89 90 91 92 93 93 94 95 96 97 98 98 99 100 100 101 102 103 103 104 105 106 106 107 108 109 109 110 111 112 113 114 115 116 118 119 121 123 125 127 130 132 83 76 59 0 48 57 62 66 68 71 73 74 76 78 79 81 82 83 85 86 87 88 89 90 91 92 93 94 94 95 96 97 98 98 99 100 101 101 102 103 103 104 105 106 106 107 108 109 109 110 111 112 113 114 115 116 117 119 120 122 123 125 127 127 71 67 54 48 48 57 62 66 69 71 73 75 77 78 80 81 82 84 85 86 87 88 89 90 91 92 93 94 94 95 96 97 98 98 99 100 101 101 102 103 103 104 105 106 106 107 108 109 109 110 111 112 113 114 115 116 117 118 119 121 122 123 124 124 67 64 60 57 57 60 64 67 70 72 74 75 77 79 80 81 83 84 85 86 87 88 89 90 91 92 93 94 95 95 96 97 98 98 99 100 101 101 102 103 103 104 105 105 106 107 108 108 109 110 111 112 112 113 114 115 116 117 118 119 120 121 122 122 66 65 63 62 62 64 66 69 71 73 75 76 78 79 81 82 83 84 85 86 87 88 89 90 91 92 93 94 95 95 96 97 98 98 99 100 101 101 102 103 103 104 105 105 106 107 108 108 109 110 111 111 112 113 114 115 116 117 117 118 119 120 120 120 67 66 66 66 66 67 69 70 72 74 75 77 78 80 81 82 84 85 86 87 88 89 90 91 91 92 93 94 95 96 96 97 98 99 99 100 101 101 102 103 103 104 105 105 106 107 107 108 109 110 110 111 112 113 113 114 115 116 117 117 118 118 119 119 68 68 68 68 69 70 71 72 74 75 76 78 79 81 82 83 84 85 86 87 88 89 90 91 92 93 93 94 95 96 96 97 98 99 99 100 101 101 102 103 103 104 105 105 106 107 107 108 109 109 110 111 112 112 113 114 114 115 116 116 117 117 118 118 70 70 70 71 71 72 73 74 75 76 78 79 80 81 82 83 85 86 87 88 88 89 90 91 92 93 94 94 95 96 97 97 98 99 99 100 101 101 102 103 103 104 105 105 106 107 107 108 109 109 110 111 111 112 113 113 114 114 115 115 116 116 116 117 72 72 72 73 73 74 75 75 77 78 79 80 81 82 83 84 85 86 87 88 89 90 91 91 92 93 94 95 95 96 97 97 98 99 99 100 101 101 102 103 103 104 105 105 106 106 107 108 108 109 110 110 111 111 112 113 113 114 114 115 115 115 115 116 74 74 74 75 75 75 76 77 78 79 80 81 82 83 84 85 86 87 88 88 89 90 91 92 93 93 94 95 95 96 97 98 98 99 100 100 101 101 102 103 103 104 105 105 106 106 107 108 108 109 109 110 111 111 112 112 113 113 114 114 114 115 115 115 76 76 76 76 77 77 78 78 79 80 81 82 83 84 85 85 86 87 88 89 90 91 91 92 93 94 94 95 96 96 97 98 98 99 100 100 101 102 102 103 103 104 105 105 106 106 107 107 108 109 109 110 110 111 111 112 112 113 113 113 114 114 114 114 77 77 78 78 78 79 79 80 81 81 82 83 84 85 85 86 87 88 89 89 90 91 92 92 93 94 95 95 96 97 97 98 99 99 100 100 101 102 102 103 103 104 104 105 106 106 107 107 108 108 109 109 110 110 111 111 112 112 112 113 113 113 113 113 79 79 79 79 80 80 81 81 82 82 83 84 85 85 86 87 88 88 89 90 91 91 92 93 93 94 95 95 96 97 97 98 99 99 100 100 101 102 102 103 103 104 104 105 106 106 107 107 108 108 109 109 110 110 110 111 111 112 112 112 112 113 113 113 80 80 81 81 81 81 82 82 83 84 84 85 85 86 87 88 88 89 90 90 91 92 92 93 94 94 95 96 96 97 98 98 99 99 100 101 101 102 102 103 103 104 104 105 105 106 107 107 108 108 108 109 109 110 110 111 111 111 111 112 112 112 112 112 82 82 82 82 82 83 83 84 84 85 85 86 86 87 88 88 89 90 90 91 92 92 93 94 94 95 95 96 97 97 98 98 99 100 100 101 101 102 102 103 103 104 104 105 105 106 106 107 107 108 108 109 109 109 110 110 111 111 111 111 111 112 112 112 83 83 83 83 84 84 84 85 85 86 86 87 87 88 88 89 90 90 91 91 92 93 93 94 95 95 96 96 97 97 98 99 99 100 100 101 101 102 102 103 103 104 104 105 105 106 106 107 107 108 108 108 109 109 110 110 110 110 111 111 111 111 111 111 84 84 85 85 85 85 85 86 86 87 87 88 88 89 89 90 90 91 91 92 93 93 94 94 95 95 96 97 97 98 98 99 99 100 100 101 101 102 102 103 103 104 104 105 105 106 106 107 107 108 108 108 109 109 109 110 110 110 110 110 111 111 111 111 86 86 86 86 86 86 87 87 87 88 88 88 89 89 90 90 91 91 92 93 93 94 94 95 95 96 96 97 97 98 98 99 100 100 101 101 102 102 103 103 103 104 104 105 105 106 106 107 107 107 108 108 108 109 109 109 110 110 110 110 110 110 110 110 87 87 87 87 87 87 88 88 88 89 89 89 90 90 91 91 92 92 93 93 94 94 95 95 96 96 97 97 98 98 99 99 100 100 101 101 102 102 103 103 104 104 104 105 105 106 106 107 107 107 108 108 108 109 109 109 109 110 110 110 110 110 110 110 88 88 88 88 88 88 89 89 89 89 90 90 91 91 91 92 92 93 93 94 94 95 95 96 96 96 97 97 98 98 99 99 100 100 101 101 102 102 103 103 104 104 104 105 105 106 106 106 107 107 107 108 108 108 109 109 109 109 109 110 110 110 110 110 89 89 89 89 89 89 90 90 90 90 91 91 91 92 92 92 93 93 94 94 95 95 95 96 96 97 97 98 98 99 99 100 100 101 101 101 102 102 103 103 104 104 104 105 105 106 106 106 107 107 107 108 108 108 108 109 109 109 109 109 109 110 110 110 90 90 90 90 90 90 91 91 91 91 91 92 92 92 93 93 93 94 94 95 95 95 96 96 97 97 98 98 99 99 99 100 100 101 101 102 102 102 103 103 104 104 105 105 105 106 106 106 107 107 107 108 108 108 108 109 109 109 109 109 109 109 109 109 91 91 91 91 91 91 91 92 92 92 92 93 93 93 93 94 94 94 95 95 96 96 96 97 97 98 98 98 99 99 100 100 100 101 101 102 102 103 103 103 104 104 105 105 105 106 106 106 107 107 107 107 108 108 108 108 109 109 109 109 109 109 109 109 92 92 92 92 92 92 92 92 93 93 93 93 94 94 94 94 95 95 95 96 96 96 97 97 97 98 98 99 99 99 100 100 101 101 102 102 102 103 103 104 104 104 105 105 105 106 106 106 107 107 107 107 108 108 108 108 108 109 109 109 109 109 109 109 93 93 93 93 93 93 93 93 93 94 94 94 94 94 95 95 95 95 96 96 96 97 97 97 98 98 99 99 99 100 100 101 101 101 102 102 102 103 103 104 104 104 105 105 105 106 106 106 107 107 107 107 108 108 108 108 108 108 109 109 109 109 109 109 94 94 94 94 94 94 94 94 94 94 95 95 95 95 95 96 96 96 96 97 97 97 97 98 98 98 99 99 100 100 100 101 101 101 102 102 103 103 103 104 104 104 105 105 105 106 106 106 107 107 107 107 108 108 108 108 108 108 108 109 109 109 109 109 95 95 95 95 95 95 95 95 95 95 95 95 96 96 96 96 96 97 97 97 97 98 98 98 98 99 99 99 100 100 101 101 101 102 102 102 103 103 104 104 104 105 105 105 105 106 106 106 107 107 107 107 108 108 108 108 108 108 108 108 109 109 109 109 96 96 96 96 96 96 96 96 96 96 96 96 96 96 97 97 97 97 97 97 98 98 98 98 99 99 99 100 100 100 101 101 102 102 102 103 103 103 104 104 104 105 105 105 106 106 106 106 107 107 107 107 107 108 108 108 108 108 108 108 108 109 109 109 96 96 96 96 96 97 97 97 97 97 97 97 97 97 97 97 97 98 98 98 98 98 99 99 99 99 100 100 100 101 101 101 102 102 102 103 103 103 104 104 104 105 105 105 106 106 106 106 107 107 107 107 107 108 108 108 108 108 108 108 108 108 108 109 97 97 97 97 97 97 97 97 97 97 97 98 98 98 98 98 98 98 98 98 98 99 99 99 99 100 100 100 101 101 101 102 102 102 103 103 103 104 104 104 105 105 105 105 106 106 106 106 107 107 107 107 107 108 108 108 108 108 108 108 108 108 108 108 98 98 98 98 98 98 98 98 98 98 98 98 98 98 98 98 98 98 99 99 99 99 99 99 100 100 100 100 101 101 101 102 102 102 103 103 103 104 104 104 105 105 105 106 106 106 106 107 107 107 107 107 108 108 108 108 108 108 108 108 108 108 108 108 99 99 99 99 99 99 99 99 99 99 99 99 99 99 99 99 99 99 99 99 99 99 99 100 100 100 100 101 101 101 102 102 102 103 103 103 104 104 104 105 105 105 105 106 106 106 106 107 107 107 107 107 108 108 108 108 108 108 108 108 108 108 108 108 100 100 100 100 100 100 100 100 100 100 100 100 99 99 99 99 99 99 99 99 99 100 100 100 100 100 101 101 101 101 102 102 103 103 103 104 104 104 104 105 105 105 106 106 106 106 107 107 107 107 107 107 108 108 108 108 108 108 108 108 108 108 108 108 101 101 101 101 101 101 101 101 100 100 100 100 100 100 100 100 100 100 100 100 100 100 100 100 100 100 101 101 101 102 102 102 103 103 103 104 104 104 105 105 105 106 106 106 106 106 107 107 107 107 107 108 108 108 108 108 108 108 108 108 108 108 108 108 102 102 102 102 102 102 101 101 101 101 101 101 101 101 100 100 100 100 100 100 100 100 100 100 100 101 101 101 102 102 102 103 103 103 104 104 104 105 105 105 105 106 106 106 106 107 107 107 107 107 107 108 108 108 108 108 108 108 108 108 108 108 108 108 103 103 103 103 102 102 102 102 102 102 102 102 101 101 101 101 101 100 100 100 100 100 100 100 100 101 101 101 102 102 102 103 103 103 104 104 104 105 105 105 106 106 106 106 107 107 107 107 107 107 108 108 108 108 108 108 108 108 108 108 108 108 108 108 104 103 103 103 103 103 103 103 103 103 102 102 102 102 101 101 101 101 100 100 100 100 100 100 101 101 101 101 102 102 103 103 103 104 104 104 105 105 105 106 106 106 106 107 107 107 107 107 107 108 108 108 108 108 108 108 108 108 108 108 108 108 108 108 104 104 104 104 104 104 104 104 104 103 103 103 103 102 102 102 101 101 101 100 100 100 100 100 101 101 101 101 102 102 103 103 104 104 104 105 105 105 106 106 106 106 107 107 107 107 107 107 108 108 108 108 108 108 108 108 108 108 108 108 108 108 109 109 105 105 105 105 105 105 105 105 105 104 104 104 103 103 102 102 102 101 101 100 100 100 100 100 100 101 101 102 102 102 103 103 104 104 105 105 105 106 106 106 106 107 107 107 107 107 107 108 108 108 108 108 108 108 108 108 108 108 108 109 109 109 109 109 106 106 106 106 106 106 106 106 105 105 105 104 104 104 103 102 102 101 101 100 100 100 100 100 100 101 101 102 102 103 103 104 104 104 105 105 106 106 106 106 107 107 107 107 107 107 108 108 108 108 108 108 108 108 108 108 108 109 109 109 109 109 109 109 107 107 107 107 107 107 107 107 106 106 106 105 105 104 104 103 102 101 101 100 100 100 100 100 100 100 101 102 102 103 103 104 104 105 105 106 106 106 106 107 107 107 107 107 108 108 108 108 108 108 108 108 108 108 108 109 109 109 109 109 109 109 109 109 108 108 108 108 108 108 108 108 107 107 107 106 106 105 104 103 102 102 101 100 99 99 99 99 100 100 101 102 102 103 104 104 105 105 106 106 106 107 107 107 107 107 108 108 108 108 108 108 108 108 108 108 108 109 109 109 109 109 109 109 109 109 109 109 109 109 109 109 109 109 109 109 108 108 108 107 107 106 105 104 103 102 100 99 99 98 98 98 99 100 101 102 102 103 104 105 105 106 106 106 107 107 107 107 108 108 108 108 108 108 108 108 108 108 109 109 109 109 109 109 109 109 109 109 109 109 109 109 110 110 110 110 110 110 110 110 110 109 109 108 108 107 106 105 103 102 100 99 98 97 97 97 98 99 100 102 103 103 104 105 106 106 106 107 107 107 108 108 108 108 108 108 108 108 108 109 109 109 109 109 109 109 109 109 109 109 109 109 109 109 109 109 112 112 112 111 111 111 111 111 111 111 110 110 109 108 107 105 104 102 100 98 96 95 95 96 97 99 100 102 103 104 105 106 106 107 107 107 108 108 108 108 108 108 108 109 109 109 109 109 109 109 109 109 109 109 109 109 109 109 109 109 109 109 109 109 113 113 113 113 113 113 112 112 112 112 111 111 110 109 108 106 104 102 99 96 94 93 93 94 96 98 100 102 103 105 105 106 107 107 108 108 108 108 108 109 109 109 109 109 109 109 109 109 109 109 109 109 109 109 109 109 109 109 109 109 109 109 109 109 114 114 114 114 114 114 114 114 113 113 113 113 112 111 110 108 106 103 99 94 90 88 89 91 95 98 100 103 104 105 106 107 108 108 108 109 109 109 109 109 109 109 109 109 109 109 109 109 109 109 109 109 109 109 109 109 109 109 109 109 109 109 109 109 115 115 115 115 115 115 115 115 115 115 115 114 114 113 112 110 108 104 99 92 85 81 83 88 94 98 101 104 105 106 107 108 108 109 109 109 109 109 109 110 110 110 110 110 110 109 109 109 109 109 109 109 109 109 109 109 109 109 109 109 109 109 109 109 116 116 116 116 116 116 116 116 116 116 116 116 116 116 115 113 111 107 101 91 74 68 71 86 95 100 103 105 107 108 109 109 109 110 110 110 110 110 110 110 110 110 110 110 110 110 110 110 110 110 110 110 110 109 109 109 109 109 109 109 109 109 109 109 117 117 117 117 117 117 118 118 118 118 118 118 118 118 118 117 116 113 107 97 77 0 73 89 98 103 106 108 109 110 110 110 111 111 111 111 111 111 111 111 110 110 110 110 110 110 110 110 110 110 110 110 110 110 110 110 110 110 109 109 109 109 109 109 118 118 118 118 118 119 119 119 119 120 120 120 121 121 121 122 121 120 117 110 94 87 87 99 105 108 110 111 111 112 112 112 112 112 112 112 111 111 111 111 111 111 111 111 110 110 110 110 110 110 110 110 110 110 110 110 110 110 110 110 110 110 110 110 119 119 119 119 120 120 120 120 121 121 122 123 123 124 125 126 128 130 132 131 127 120 115 113 113 114 114 114 114 114 114 113 113 113 113 112 112 112 112 112 111 111 111 111 111 111 110 110 110 110 110 110 110 110 110 110 110 110 110 110 110 110 110 110 120 120 120 120 121 121 121 122 122 123 124 125 126 127 129 131 134 138 146 160 161 154 136 127 122 120 118 117 117 116 115 115 114 114 114 113 113 113 112 112 112 112 111 111 111 111 111 111 110 110 110 110 110 110 110 110 110 110 110 110 110 110 110 110 121 121 121 121 122 122 122 123 124 124 125 126 128 130 132 135 139 145 155 174 255 170 149 136 130 125 123 121 119 118 117 116 116 115 115 114 114 113 113 112 112 112 112 111 111 111 111 111 111 110 110 110 110 110 110 110 110 110 110 110 110 110 110 110 122 122 122 122 122 123 123 124 125 126 127 128 130 132 134 137 142 148 158 175 179 172 153 142 134 129 126 123 121 120 119 118 117 116 115 115 114 114 113 113 113 112 112 112 111 111 111 111 111 111 110 110 110 110 110 110 110 110 110 110 110 110 110 110 122 123 123 123 123 124 124 125 126 127 128 129 131 133 136 139 143 149 156 161 164 159 152 143 137 132 128 126 123 122 120 119 118 117 116 115 115 114 114 113 113 113 112 112 112 111 111 111 111 111 111 110 110 110 110 110 110 110 110 110 110 110 110 110 123 123 123 124 124 124 125 126 127 128 129 131 132 134 137 140 143 147 151 154 155 153 148 143 138 134 130 127 125 123 121 120 119 118 117 116 115 115 114 114 113 113 112 112 112 112 111 111 111 111 111 111 110 110 110 110 110 110 110 110 110 110 110 110 124 124 124 124 125 125 126 127 127 129 130 131 133 135 137 140 143 146 148 150 150 148 145 142 138 134 131 128 126 124 122 121 120 118 117 117 116 115 115 114 113 113 113 112 112 112 112 111 111 111 111 111 111 110 110 110 110 110 110 110 110 110 110 110 124 124 124 125 125 126 126 127 128 129 130 132 134 135 138 140 142 144 146 147 147 146 143 141 138 135 132 129 127 125 123 122 120 119 118 117 116 115 115 114 114 113 113 112 112 112 112 111 111 111 111 111 111 110 110 110 110 110 110 110 110 110 110 110 124 124 125 125 125 126 127 127 128 130 131 132 134 136 138 140 141 143 144 145 145 144 142 140 137 135 132 130 127 125 124 122 121 119 118 117 116 116 115 114 114 113 113 113 112 112 112 111 111 111 111 111 111 111 110 110 110 110 110 110 110 110 110 110 125 125 125 125 126 126 127 128 129 130 131 133 134 136 138 139 141 142 143 144 144 143 141 139 137 135 132 130 128 126 124 122 121 120 118 117 117 116 115 115 114 113 113 113 112 112 112 112 111 111 111 111 111 111 110 110 110 110 110 110 110 110 110 110 125 125 125 125 126 126 127 128 129 130 131 133 134 136 138 139 141 142 143 143 143 142 141 139 137 135 132 130 128 126 124 122 121 120 119 118 117 116 115 115 114 114 113 113 112 112 112 112 111 111 111 111 111 111 110 110 110 110 110 110 110 110 110 110 